<svg xmlns="http://www.w3.org/2000/svg" width="292.587" height="43.488" viewBox="0 0 292.587 43.488">
  <g id="aozora-farm-logo" transform="translate(0.001 0.004)">
    <path id="AOZORA" d="M732.481,510.543V495.549a7.684,7.684,0,1,0-15.352,0v14.994a1.023,1.023,0,0,0,1.125,1.126h.154a1.024,1.024,0,0,0,1.126-1.126v-7.471a2.047,2.047,0,0,1,2.251-2.251h6.039a2.047,2.047,0,0,1,2.251,2.251v7.471a1.023,1.023,0,0,0,1.126,1.126h.154a1.023,1.023,0,0,0,1.125-1.126Zm-2.408-13.919a2.047,2.047,0,0,1-2.251,2.252h-6.036a2.047,2.047,0,0,1-2.251-2.252v-1.075c0-2.917,1.944-5.783,5.271-5.783s5.27,2.866,5.27,5.783v1.075Zm26.047,7.525v-8.6a7.684,7.684,0,1,0-15.352,0v8.6a7.685,7.685,0,1,0,15.355,0Zm-2.408,0c0,2.917-1.944,5.783-5.271,5.783s-5.271-2.866-5.271-5.783v-8.6c0-2.917,1.944-5.783,5.271-5.783s5.271,2.866,5.271,5.783v8.6Zm26.046,6.55a.989.989,0,0,0-1.126-.972H769.58c-2.456,0-3.224-1.842-1.944-3.633l10.541-14.689c1.177-1.689.256-3.378-1.688-3.378h-9.774a.982.982,0,1,0,0,1.945h6.96c1.433,0,1.791,1.126,1.024,2.2l-9.314,12.895c-2.1,2.917-.768,6.6,3.326,6.6h9.927a.989.989,0,0,0,1.126-.972Zm23.641-6.55v-8.6a7.684,7.684,0,1,0-15.352,0v8.6a7.686,7.686,0,1,0,15.357,0Zm-2.408,0c0,2.917-1.945,5.783-5.271,5.783s-5.271-2.866-5.271-5.783v-8.6c0-2.917,1.945-5.783,5.271-5.783s5.271,2.866,5.271,5.783v8.6Zm26.046,6.4v-3.94a7.48,7.48,0,0,0-2-5.478c-.921-.972-.921-1.385,0-2.251a5.6,5.6,0,0,0,2-4.4c0-4.455-3.07-6.96-7.676-6.96a7.745,7.745,0,0,0-7.676,8.034v14.994a1.024,1.024,0,0,0,1.126,1.126h.153a1.023,1.023,0,0,0,1.126-1.126v-7.471a2.047,2.047,0,0,1,2.251-2.251h3.019c3.327,0,5.271,2.866,5.271,5.783v3.94a1.023,1.023,0,0,0,1.126,1.126h.154a1.023,1.023,0,0,0,1.134-1.126Zm-2.408-16.068c0,3.633-3.685,4.4-5.271,4.4h-3.019a2.047,2.047,0,0,1-2.251-2.252v-1.075c0-2.917,1.945-5.783,5.271-5.783,2.877,0,5.282,1.584,5.282,4.706Zm26.046,16.068v-15a7.684,7.684,0,1,0-15.352,0v14.994a1.023,1.023,0,0,0,1.126,1.126h.153a1.023,1.023,0,0,0,1.126-1.126v-7.471a2.047,2.047,0,0,1,2.252-2.251h6.039a2.047,2.047,0,0,1,2.251,2.251v7.471a1.023,1.023,0,0,0,1.126,1.126h.154a1.024,1.024,0,0,0,1.137-1.126Zm-2.408-13.919a2.047,2.047,0,0,1-2.252,2.252h-6.025a2.047,2.047,0,0,1-2.252-2.252v-1.075c0-2.917,1.945-5.783,5.271-5.783s5.271,2.866,5.271,5.783v1.075Z" transform="translate(-717.125 -475.919)" fill="#fff" fill-rule="evenodd"/>
    <path id="FARM" d="M1076.511,491a1.1,1.1,0,0,0-.355-1.536,11.684,11.684,0,0,0-6.195-1.944,7.745,7.745,0,0,0-7.676,8.034v14.994a1.023,1.023,0,0,0,1.126,1.126h.156a1.023,1.023,0,0,0,1.126-1.126v-7.474a2.047,2.047,0,0,1,2.252-2.251h7.007a.982.982,0,1,0,0-1.944h-7.007a2.047,2.047,0,0,1-2.252-2.252v-1.075c0-2.917,1.944-5.783,5.268-5.783a10.018,10.018,0,0,1,4.966,1.587,1.108,1.108,0,0,0,1.583-.356Zm23.286,19.548v-15a7.684,7.684,0,1,0-15.351,0v14.994a1.024,1.024,0,0,0,1.126,1.126h.151a1.024,1.024,0,0,0,1.125-1.126v-7.471a2.047,2.047,0,0,1,2.251-2.251h6.038a2.047,2.047,0,0,1,2.251,2.251v7.471a1.023,1.023,0,0,0,1.125,1.126h.157a1.023,1.023,0,0,0,1.125-1.126Zm-2.408-13.919a2.047,2.047,0,0,1-2.251,2.252H1089.1a2.047,2.047,0,0,1-2.251-2.252v-1.075c0-2.917,1.944-5.783,5.273-5.783s5.268,2.866,5.268,5.783Zm26.048,13.919v-3.94a7.48,7.48,0,0,0-2-5.478c-.921-.972-.921-1.385,0-2.251a5.59,5.59,0,0,0,2-4.4c0-4.455-3.07-6.96-7.675-6.96a7.744,7.744,0,0,0-7.676,8.034v14.994a1.023,1.023,0,0,0,1.125,1.126h.151a1.024,1.024,0,0,0,1.126-1.126v-7.471a2.046,2.046,0,0,1,2.251-2.251h3.022c3.323,0,5.267,2.866,5.267,5.783v3.94a1.023,1.023,0,0,0,1.126,1.126h.156a1.024,1.024,0,0,0,1.126-1.126Zm-2.408-16.068c0,3.633-3.684,4.4-5.267,4.4h-3.022a2.047,2.047,0,0,1-2.251-2.252v-1.075c0-2.917,1.944-5.783,5.273-5.783,2.865,0,5.267,1.584,5.267,4.706Zm26.049,16.068V489.152a1.024,1.024,0,0,0-1.126-1.126h-.662a1.651,1.651,0,0,0-1.487,1.126l-3.275,8.239a1.131,1.131,0,0,1-2.251,0L1135,489.152a1.658,1.658,0,0,0-1.487-1.126h-.662a1.023,1.023,0,0,0-1.125,1.126v21.391a1.076,1.076,0,1,0,2.149,0v-13.51c0-1.33,1.125-1.74,1.74-.307l2.811,6.7c.259.614.566,1.023.975,1.023s.716-.409.969-1.023l2.818-6.7c.614-1.433,1.74-1.023,1.74.307v13.51a1.076,1.076,0,1,0,2.149,0Z" transform="translate(-854.498 -475.919)" fill="#fff" fill-rule="evenodd"/>
    <path id="O" d="M1000.879,490.142a16.906,16.906,0,0,0-6.243-12.589,8.9,8.9,0,0,0-5.526-2.047,10,10,0,0,0-4.4,1.126l-.307.409c-.614-.051-.87-.1-1.279-.1-6.192,0-10.49,5.117-10.49,12.486a16.778,16.778,0,0,0,3.121,9.519c2.251,3.121,5.527,5.27,8.085,5.27.154,0,.361-.051.512-.051l.972-.1,2,.1,2.354-.256.2.051.457-.1a15.153,15.153,0,0,0,7.525-5.168,13.817,13.817,0,0,0,3.016-8.546Zm-2.251.051A12.022,12.022,0,0,1,986.45,502.27c-6.7,0-11.719-5.578-11.719-13.049,0-6.089,3.634-10.7,8.392-10.7h.716l-.256.921,2.047-.409a6.167,6.167,0,0,1,3.889,5.732c0,1.689-.458,2.763-2.047,4.756a2.25,2.25,0,0,0-.048.512.568.568,0,0,0,.662.563c.819,0,3.173-2.508,3.173-5.987a7.429,7.429,0,0,0-4.3-6.653,5.394,5.394,0,0,1,2.51-.614,6.3,6.3,0,0,1,4.449,1.944,16.043,16.043,0,0,1,4.708,10.9Zm-28.452,3.889a1.734,1.734,0,0,0-.767-1.586l-.972-.614a1.913,1.913,0,0,1-.665-.768c-.614-1.485-.768-1.792-1.177-1.792a1.475,1.475,0,0,0-1.126,2.3l1.382,1.791c1.228,1.586,1.381,1.74,2,1.74,1.228,0,1.33-.1,1.33-1.075Zm38.842-13.2a.916.916,0,0,0-1.023-.665,2.447,2.447,0,0,0-.259.051l-2.709.768-1.842.256a1.265,1.265,0,0,0-.975,1.177,1.191,1.191,0,0,0,1.33,1.075,2.527,2.527,0,0,0,.819-.154l3.841-1.689.614-.1a1.427,1.427,0,0,0,.2-.716Zm-34.7,21.491a.575.575,0,0,0-.46-.614l-1.484.409-.921-.1-1.587-1.126a.733.733,0,0,0-.512-.2c-.461,0-1.023.716-1.023,1.484,0,1.075.819,1.535,2.866,1.535,2.1,0,3.121-.459,3.121-1.38Zm-2.3-23.436c0-.563-.409-.87-1.279-.921a5.7,5.7,0,0,0-1.331,4.094c0,1.587.46,2.917,1.023,2.917.512,0,.922-.614.922-1.33l-.409-1.587a2.012,2.012,0,0,1,.307-1.637,3.957,3.957,0,0,0,.767-1.535Zm21.955,28.146c0-.972-.614-1.535-1.692-1.535-.614,0-1.228.972-1.228,2a.618.618,0,0,0,.1.361l.409.512.307,1.74.157.461,1.023.154.765-2.763a2.675,2.675,0,0,0,.157-.924Zm8.29-1.484-1.023-3.173.151-.716a1.859,1.859,0,0,0-1.276-.87c-.668,0-.975.409-.975,1.279,0,1.842,1.126,4.043,2.252,4.043a.788.788,0,0,0,.873-.562Zm5.574-12.435c0-.662-.409-.921-1.788-1.177l-1.944-.409c-.614,0-1.078.665-1.078,1.484,0,.662,1.126,1.126,2.558,1.126,1.487,0,2.251-.306,2.251-1.023Zm-27.785,14.381a.935.935,0,0,0-1.023-.614c-.819,0-1.178.563-2.1,3.275a1.762,1.762,0,0,0-.2.662,1.341,1.341,0,0,0,.563.87l1.126-.2.1-.768Zm21.747-34.386a3.413,3.413,0,0,0-.151-.921l-.716.051c-.716.051-1.385.563-3.329,2.713.156.716.464,1.177.819,1.177a2.676,2.676,0,0,0,1.078-.614l1.433-1.126C1001.6,473.97,1001.8,473.663,1001.8,473.155Zm-24.408,1.894c0-1.536-.768-2.559-2.709-3.48a2.971,2.971,0,0,0-.409,1.228c0,.768,1.893,2.968,2.559,2.968a.591.591,0,0,0,.56-.719Zm14.584-6.14c0-.307-.2-.461-.921-.662l-1.023,3.377a6.938,6.938,0,0,0-.2,1.023.7.7,0,0,0,.771.768,3.924,3.924,0,0,0,.765-.1l.2-.512.361-2.917a6.92,6.92,0,0,0,.048-.979Zm-8.136,3.275c0-1.893-.768-3.732-1.586-3.732-.361,0-.665.665-.665,1.535a3.154,3.154,0,0,0,.051.716,3.443,3.443,0,0,0,1.535,1.944h.051a.954.954,0,0,0,.614-.467Z" transform="translate(-815.865 -468.25)" fill="#fff" fill-rule="evenodd"/>
  </g>
</svg>
