<svg xmlns="http://www.w3.org/2000/svg" width="267.206" height="315.945" viewBox="0 0 267.206 315.945">
  <g id="copy-title" transform="translate(-0.006 -0.002)">
    <path id="太陽の恵み_たっぷりの_高原野菜_のコピー" data-name="太陽の恵み たっぷりの 高原野菜 のコピー" d="M1021.087,334.457c-12.235-6.439-20.021-16.041-22.011-25.993h20.782v-6.44H998.49c.176-2.811.351-6.908.351-7.494s0-1,.058-1.7c.7-.527,1.464-1.112,1.464-1.581,0-.585-.644-.878-1.229-.937l-7.961-.41c.234,4.215.234,8.137.117,12.119H970.625v6.44H990.7a34.506,34.506,0,0,1-7.552,16.041,33.15,33.15,0,0,1-14.694,10.421l5.912,5.093a41.769,41.769,0,0,0,12.645-8.957,39.8,39.8,0,0,0,8.547-13.758,39.267,39.267,0,0,0,7.435,12.47,47.566,47.566,0,0,0,11.942,9.776ZM1002,335.8a53.479,53.479,0,0,0-8.137-8.2l-4.508,4.918a45.136,45.136,0,0,1,7.318,7.962Zm15.279,39.808V356.642H991.407V375.61h25.875Zm-26.636-15.4-3.688-3.4H970.625v50h6.381V387.963l2.049,5.8c6.088-.761,8.957-3.747,8.957-8.43a20.9,20.9,0,0,0-3.688-11.182Zm20.372,3.688h-13.7v-2.576h13.7Zm0,7.084h-13.7v-2.693h13.7Zm-28.685-8.255-4.625,11.475c1.405,1.581,4.274,4.8,4.274,9.484,0,3.278-1.405,3.747-4.976,3.571V362.731h5.327Zm37.935,19.847V377.6H988.128v4.977h4.566a24.6,24.6,0,0,1-9.718,11.24l5.034,3.4a51.158,51.158,0,0,0,6.44-7.787h2.81c-3.1,5.5-8.371,9.543-14.05,12.294l4.039,4.332a47.721,47.721,0,0,0,16.274-16.626h2.224a39,39,0,0,1-11.474,14.519l5.21,2.81c5.386-4.8,9.308-10.889,12.528-17.329h1.756c-.351,10.655-1.7,11.416-4.332,11.416a11.545,11.545,0,0,1-3.805-.82l2.751,6.966c5.854,0,9.015-.7,10.069-5.913a79.065,79.065,0,0,0,1.229-16.451h-22.07c.176-.293.937-1.581,1.171-2.049h21.485Zm-1.229,65.623c0-13.055-9.6-21.309-21.777-21.309-15.1,0-25.817,11.826-25.817,24.822,0,10.479,9.6,15.748,11.708,15.748,3.044,0,5.737-4.917,7.493-8.547,1.932-3.922,5.386-12.119,7.259-26.052a14.976,14.976,0,0,1,9.952,3.922,13.8,13.8,0,0,1,4.215,10.245,18.318,18.318,0,0,1-4.215,11.65,19.717,19.717,0,0,1-10.537,6.264l4.332,6.03c3.161-1.288,9.25-3.806,13.64-10.3a21.876,21.876,0,0,0,3.746-12.471Zm-28.1-14.285c-1.171,9.133-6.205,24.413-9.25,24.413-1.054,0-3.746-2.459-3.746-7.2a19.174,19.174,0,0,1,5.854-13,17.284,17.284,0,0,1,7.142-4.216Zm29.036,64.395V493.16H998.607v-1.229a1.245,1.245,0,0,1,.527-.585.859.859,0,0,0,.527-.7c0-.293-.234-.527-1.405-.585l-6.674-.235v3.338h-21.25v5.151h21.25v2.283H976.42v19.73h38.11V500.594H998.607V498.31h21.367Zm-12.06,9.894h-9.308v-2.751h9.308Zm0,7.083h-9.308v-2.927h9.308Zm-16.333-7.083h-8.488v-2.751h8.488Zm-.058,7.083h-8.43v-2.927h8.43Zm28.041,17.8a50.312,50.312,0,0,0-7.318-10.6l-5.5,3.161a37.714,37.714,0,0,1,7.142,11.24Zm-18.031-4.273a29.66,29.66,0,0,0-4.508-7.962l-5.269,3.161a27.972,27.972,0,0,1,4.1,7.552Zm8.43,3.044L1004.4,528.7c-.351,5.386-2.986,5.386-4.683,5.386h-8.079c-1.4,0-1.932-.527-1.932-1.99v-5.444c0-.234.117-.468.7-.878a.926.926,0,0,0,.586-.761c0-.527-.586-.7-1.288-.761l-6.264-.293v10.069c0,4.567,1.7,5.854,6.381,5.854h12.059c3.922,0,7.2-.41,8.078-8.021ZM982.8,526.881a1.086,1.086,0,0,0-.761-.82l-6.206-2.517a34.053,34.053,0,0,1-6.322,12.236l6.322,2.81a60.176,60.176,0,0,0,5.444-10.362c.234-.351.293-.41,1.171-.761a.6.6,0,0,0,.351-.587Zm36.354,62.053c-2.517-1.639-4.332-2.751-7.552-4.566a70.752,70.752,0,0,0,1.99-8.723c.176-.82.176-.937.644-1.229.82-.41.878-.468.878-.761,0-.527-.82-.82-1.405-1l-6.556-1.815a49.8,49.8,0,0,1-1.522,10.714,37.645,37.645,0,0,0-11.3-2.694c.82-1.815,4.976-11.24,5.035-11.474a23.844,23.844,0,0,1,3.044-4.977l-3.864-3.864c-3.161,2.049-10.069,3.22-19.084,3.161l2.634,5.913c3.278-.058,5.386-.468,10.654-1.815a135.513,135.513,0,0,1-4.742,12.7,15.792,15.792,0,0,0-9.308,2.811c-4.1,2.751-6.908,7.083-6.908,11.591,0,4.333,2.635,7.552,6.615,7.552,5.151,0,7.669-3.747,13.464-16.158a36.243,36.243,0,0,1,11.708,3.278c-3.512,7.435-6.5,10.421-11.65,13.758l5.8,4.039c5.444-4.039,8.2-7.318,11.591-14.577,1.346.878,2.985,1.99,6.088,4.391Zm-33.778-4.449a66.465,66.465,0,0,1-3.864,7.259,2.67,2.67,0,0,1-2.459,1.405c-.41,0-1.171-.059-1.171-1.581,0-2.165,2.459-5.5,7.493-7.084Zm-76.35-268.7v-6.2a67.223,67.223,0,0,0-7.727-.351c-3.1,0-6.03.176-9.074.41v6.147a71.746,71.746,0,0,1,8.781-.644,63.614,63.614,0,0,1,8.021.641ZM895.8,304.013v-6.5a45.812,45.812,0,0,1-9.308,3.454c.41-1.639.878-3.747,1.4-6.381.117-.586.234-.644,1-1,.527-.234.7-.41.7-.82,0-.644-1.346-.937-1.464-.937l-7.2-1.7a71.1,71.1,0,0,1-1.99,12.411,42.473,42.473,0,0,1-5.8.351,23.62,23.62,0,0,1-4.742-.351l.468,6.089a77.174,77.174,0,0,0,8.723-.7c-4.625,15.865-8.371,22.188-11.884,27.867l7.143,2.166a166.048,166.048,0,0,0,12.06-31.145,70.66,70.66,0,0,0,10.89-2.811ZM909.963,337.5l-.585-6.791a38.544,38.544,0,0,1-10.3,1.288c-1.346,0-5.8-.059-7.435-1.581a2.01,2.01,0,0,1-.7-1.756,11.079,11.079,0,0,1,.234-2.166l-5.8-1.229a13.57,13.57,0,0,0-.7,4.215c0,5.972,4.508,8.9,15.046,8.9a56.619,56.619,0,0,0,10.247-.878Zm2.459,42.968c0-9.6-7.025-13.289-13.875-13.289a44.132,44.132,0,0,0-9.835,1.581,125.4,125.4,0,0,1-14.694,3.22l2.634,6.147c3.4-1.171,17.153-5.854,21.66-5.854,4.449,0,8.313,2.634,8.313,7.844,0,8.547-11.767,10.655-16.977,10.655-1.054,0-2.517-.117-4.215-.234l2.986,6.382c10.189-1.113,24.006-3.513,24.006-16.451Zm.234,53.858a5.5,5.5,0,1,0-5.5,5.621,5.6,5.6,0,0,0,5.505-5.622Zm-2.284,0a3.261,3.261,0,0,1-3.22,3.278,3.25,3.25,0,1,1,3.221-3.279Zm-14.284-2.751a59.236,59.236,0,0,0-13.406-6.966l-3.4,4.683a42.948,42.948,0,0,1,13.114,7.376Zm16.391,25.994a51.542,51.542,0,0,0-11.475-13.289l-4.039,4.215a29.165,29.165,0,0,1,4.508,4.449,53.5,53.5,0,0,1,6.147,9.133Zm-14.811,5.093c0-3.337-.878-6.088-6.323-11.826-3.512-3.688-4.215-4.449-4.215-5.678s.937-2.283,1.815-3.337l-5.151-3.923c-1.464,1.756-3.045,3.923-3.045,6.791,0,3.63,2.284,6.03,5.211,9.074,3.571,3.747,4.683,6.03,4.683,8.02,0,3.22-3.8,3.22-4.39,3.22a19.381,19.381,0,0,1-8.021-1.99l.937,6.791a37.419,37.419,0,0,0,7.435.878c3.632,0,11.068-.938,11.068-8.022Zm-18.676-7.2-2.342-5.8c-7.083,6.909-10.948,8.781-13.465,9.952l3.1,6.381A61.294,61.294,0,0,0,879,455.46Zm25.35,54.558c0-3.864-.351-8.2-.7-12.294-.058-.585-.351-3.044-.351-3.571s1.054-.878,1.054-1.405c0-.761-1.054-.761-1.229-.761h-7.083a152.812,152.812,0,0,1,1.464,18.207,35.576,35.576,0,0,1-3.572,15.69,25.845,25.845,0,0,1-8.313,9.894l6.967,3.688a39.2,39.2,0,0,0,8.2-12A43.185,43.185,0,0,0,904.343,510.019ZM885.551,508.2l-4.1-2.693c-1.464,3.278-2.635,6.322-3.4,8.313a13.183,13.183,0,0,1-.41-3.63c0-3.513.937-14.694,2.166-15.69.234-.234.82-.468.82-.878,0-.585-.878-.7-1.229-.7l-6.381-.351a110.8,110.8,0,0,0-1.639,17.329,46.15,46.15,0,0,0,2.634,15.924h4.976a135.546,135.546,0,0,1,6.559-17.621Zm26.228,73.469c0-13.055-9.6-21.31-21.779-21.31-15.1,0-25.818,11.826-25.818,24.822,0,10.479,9.6,15.748,11.708,15.748,3.044,0,5.738-4.917,7.494-8.547,1.932-3.922,5.386-12.119,7.259-26.052a14.975,14.975,0,0,1,9.952,3.922A13.8,13.8,0,0,1,904.81,580.5a18.317,18.317,0,0,1-4.215,11.65,19.719,19.719,0,0,1-10.537,6.264l4.332,6.03c3.162-1.288,9.25-3.806,13.641-10.3a21.875,21.875,0,0,0,3.75-12.47Zm-28.1-14.285c-1.171,9.133-6.206,24.413-9.25,24.413-1.053,0-3.746-2.459-3.746-7.2a19.171,19.171,0,0,1,5.854-13,17.28,17.28,0,0,1,7.143-4.216ZM792.109,333.93V322.457h-22.6V336.1h5.912v-2.166h16.685Zm11.358,2.107V315.2h-45.84v24.823h6.557V319.88h32.667v13.172c0,1.815-.41,1.932-2.225,1.932-.7,0-2.517-.117-2.986-.117l2.634,5.913h3.161C801.181,340.78,803.466,338.731,803.466,336.038Zm-17.329-6.5H775.423v-3.162h10.714v3.162Zm8.547-16.685V301.2H766.408v11.65Zm-6.5-4.156H772.966V305.42h15.221Zm17.212-9.836v-5.21H784.381v-1.637a1,1,0,0,1,.586-.7.947.947,0,0,0,.644-.7c0-.527-1.171-.585-1.4-.585l-7.084-.585v4.215h-21.31v5.21H805.4ZM805.34,363.2v-5.617h-44.9c.41,6.908.41,13.231.41,14.226a76.984,76.984,0,0,1-3.1,22.831,28.859,28.859,0,0,1-3.63,7.962l6.089,1.99a43.225,43.225,0,0,0,4.273-11.065,91.115,91.115,0,0,0,2.634-22.89V363.2h16.041a46.951,46.951,0,0,1-1.4,4.918h-11.24v20.2h11.825v11.708a1.191,1.191,0,0,1-1.4,1.229,40.495,40.495,0,0,1-4.1-.234l2.342,5.971c7.142-.058,9.366-1.054,9.366-4.8V388.314h12.587v-20.2H788.6c.644-1.991.878-2.752,1.522-4.918h15.221ZM794.86,375.9H777v-2.342H794.86Zm0,7.143H777v-2.576H794.86Zm10.479,18.382a51.847,51.847,0,0,0-9.952-11.006l-4.1,4.1a50.05,50.05,0,0,1,9.25,10.655Zm-24.881-6.616c0-.117-.059-.585-1.054-1.229l-5.386-3.337a30.01,30.01,0,0,1-8.665,11.65l5.387,3.1a38.1,38.1,0,0,0,7.9-9.66c.761,0,1.815,0,1.815-.527Zm-.937,71.713v-5.152c-1.815.41-4.273.878-9.484,1.64v-5.094h8.84v-5.034h-8.84v-4.273h8.84V425.077h-22.6v23.535h8.547v4.273h-8.547v5.034h8.547v5.8c-3.981.468-5.327.644-10.421,1.054l1.406,6.44a.71.71,0,0,0,.761.468c.351,0,.527-.176,1.112-.761.351-.41,2.224-.761,3.044-.878,1.112-.176,5.8-.937,6.732-1.112C771.5,468.164,775.483,467.4,779.521,466.525Zm-5.913-32.316h-3.571v-4.1h3.571Zm-8.781,0h-3.278v-4.1h3.278Zm8.781,9.308h-3.571V439.3h3.571Zm-8.781,0h-3.278V439.3h3.278ZM807.1,445.8l-2.4-2.75h-6.264l1.7-2.517a27.937,27.937,0,0,0-4.216-3.278,103.825,103.825,0,0,0,9.894-9.777L803.64,424.9H782.156v5.386H795.5a30.769,30.769,0,0,1-4.273,4.391,37.853,37.853,0,0,0-4.742-1.933l-2.635,4.567a41.748,41.748,0,0,1,9.718,5.737H781.044v5.562h7.844v17.036c0,1.464-.7,1.873-2.225,1.873h-3.454l3.045,5.912c7.376-.351,9.015-1.581,9.015-5.8V456.573l4.977,2.225a104.126,104.126,0,0,0,6.851-13Zm-7.435,2.811a33.727,33.727,0,0,1-4.391,7.259v-7.259Zm6.908,85.295c-8.957-1.756-14.929-5.854-18.09-9.016H806.1v-5.971h-9.836a43.356,43.356,0,0,0,4.86-8.138c.176-.293.234-.351,1-.527a.841.841,0,0,0,.82-.644c0-.468-.937-.937-1.171-1L796.5,506.8c.293-.117.527-.176,2.635-.761a1.645,1.645,0,0,1,.468-.058c.293,0,1.464.293,1.7.293a.552.552,0,0,0,.586-.585,5.091,5.091,0,0,0-.82-1.7l-2.635-3.922c-1.4.468-3.1,1.054-6.5,1.873v-2.459h13.992v-6.03H791.933V492.4a.823.823,0,0,1,.527-.644,1.437,1.437,0,0,0,.644-1c0-.468-.7-.527-1.756-.644l-6.322-.585v3.922h-8.84c0-1.112,0-1.288.761-1.815.468-.351.585-.468.585-.7,0-.7-1.639-.761-2.4-.82l-5.8-.41v3.747H755.4v6.03h13.934v2.869h6.849v-2.869h8.84v2.577h5.8a86.763,86.763,0,0,1-19.085,1.932,85.193,85.193,0,0,1-13.7-1.054l2.166,6.849a19.234,19.234,0,0,0,2.693.059l-4.039,2.517a34.014,34.014,0,0,1,4.625,6.557H755.4v5.971h17.212c-3.278,3.044-10.6,7.435-18.733,9.25l4.86,5.62c6.03-2.459,14.284-7.61,18.441-12.294v12.879H784.5V527.7c5.269,5.854,12,9.66,17.153,12.177Zm-10.948-14.987H784.5c0-.937,0-1.054.41-1.464.41-.351.468-.41.468-.644,0-.7-1.346-.82-2.459-1l1.874-1.23a25.287,25.287,0,0,0-3.806-5.034,89.607,89.607,0,0,0,14.46-2.517,46.91,46.91,0,0,1-5.62,9.192Zm-18.09-3.454-.351-.059v3.513H765.706l3.981-2.342A49.923,49.923,0,0,0,765.3,509.9c4.157.117,7.728.058,11.943-.117l-2.751,1.464A22.173,22.173,0,0,1,777.532,515.465Z" transform="translate(-753.875 -289.438)" fill="#fff" fill-rule="evenodd"/>
    <path id="シェイプ_1" data-name="シェイプ 1" d="M1037,297V605.966" transform="translate(-852.838 -292.081)" fill="none" stroke="#fff" stroke-linecap="round" stroke-linejoin="round" stroke-width="3" fill-rule="evenodd"/>
    <path id="シェイプ_1_のコピー" data-name="シェイプ 1 のコピー" d="M884,297V605.966" transform="translate(-799.358 -292.081)" fill="none" stroke="#fff" stroke-linecap="round" stroke-linejoin="round" stroke-width="3" fill-rule="evenodd"/>
  </g>
</svg>
