<svg xmlns="http://www.w3.org/2000/svg" width="83.082" height="50.621" viewBox="0 0 83.082 50.621">
  <g id="popular" transform="matrix(0.985, -0.174, 0.174, 0.985, 0, 13.495)">
    <path id="イチジクの葉_1" data-name="イチジクの葉 1" d="M11.676,20.436c-.055.017-.1.037-.155.055m.228-2.6c-.244.069-.493.136-.731.206-.864.232-1.684.489-2.454.773s-1.515.506-2.187.806l-1.9.8c-.572.287-1.1.55-1.574.789A24.788,24.788,0,0,0,.753,22.5L0,22.957l1.712,2.469.664-.437a21.73,21.73,0,0,1,1.91-1.2L5.7,23.006l1.737-.816c.613-.308,1.306-.558,2.026-.842.639-.266,1.334-.508,2.056-.74C23.767,51.121,48.285,33.2,64.9,24.548a61.4,61.4,0,0,1,12.821-5.181S25.516-23.147,11.664,17.8" transform="translate(0 0)" fill="#43c457" fill-rule="evenodd"/>
    <path id="人気No.1" d="M5.448.047H4.1a.378.378,0,0,0-.3.109.437.437,0,0,0-.131.285l0,3.645a3.575,3.575,0,0,1-.745,2.48A2.683,2.683,0,0,1,.821,7.4H.405a.516.516,0,0,0-.3.121A.374.374,0,0,0,0,7.806V9.277a.373.373,0,0,0,.109.285.514.514,0,0,0,.3.121H.82A5.4,5.4,0,0,0,4.789,7.557,5.388,5.388,0,0,0,8.8,9.688H9.1a.526.526,0,0,0,.328-.121.448.448,0,0,0,.131-.351V7.866a.448.448,0,0,0-.131-.329A.481.481,0,0,0,9.1,7.4H8.8a2.762,2.762,0,0,1-2.174-.836,3.579,3.579,0,0,1-.742-2.482l0-3.645A.354.354,0,0,0,5.754.157.42.42,0,0,0,5.448.047Zm12.9,9.658h1.8A.528.528,0,0,0,20.5,9.63a.336.336,0,0,0,.1-.274V8.521a.435.435,0,0,0-.1-.34.518.518,0,0,0-.349-.088h-.208a.2.2,0,0,1-.218-.231l0-3.217a.624.624,0,0,0-.1-.417.568.568,0,0,0-.371-.088L11.27,4.135a.517.517,0,0,0-.35.088.624.624,0,0,0-.1.417v.505a.519.519,0,0,0,.1.351.417.417,0,0,0,.349.11h.743v.659a.749.749,0,0,0,.1.472,1.785,1.785,0,0,0,.393.3l.983.615a3.048,3.048,0,0,1-1.574.438h-.667a.475.475,0,0,0-.3.121.349.349,0,0,0-.109.274v.8a.374.374,0,0,0,.109.285.548.548,0,0,0,.3.121h1.246A4.526,4.526,0,0,0,14.8,8.934a4.344,4.344,0,0,0,.372-.241l1.475.912A.424.424,0,0,0,17,9.66a.394.394,0,0,0,.088-.307V8.54a.589.589,0,0,0-.1-.407,2.612,2.612,0,0,0-.349-.275l-.339-.209a4.853,4.853,0,0,0,.306-.406q.673-.988.558-1.119a.373.373,0,0,0-.3-.132H15.706a.372.372,0,0,0-.273.121c-.087.088-.3.285-.645.592l-1.781-1.1,4.885,0,0,3.744a.373.373,0,0,0,.087.274.6.6,0,0,0,.372.078Zm-6.226-5.9,7.158,0a.47.47,0,0,0,.372-.109.519.519,0,0,0,.1-.351V2.834a.61.61,0,0,0-.1-.407.59.59,0,0,0-.371-.088l-5.956,0c.033-.11.055-.209.078-.318l6.666,0a.583.583,0,0,0,.372-.077.333.333,0,0,0,.088-.274v-.7a.486.486,0,0,0-.087-.352A.581.581,0,0,0,20.07.538l-6.645,0V.479a.567.567,0,0,0-.1-.373.34.34,0,0,0-.3-.1h-.94a.486.486,0,0,0-.393.1.551.551,0,0,0-.1.362v.692a.659.659,0,0,1-.164.527.643.643,0,0,1-.372.164.238.238,0,0,0-.164.132.848.848,0,0,0-.066.373V2.8a.431.431,0,0,0,.12.351.444.444,0,0,0,.328.121h.4v.077a.518.518,0,0,0,.1.351A.432.432,0,0,0,12.123,3.806ZM30.255,1.03a1,1,0,0,0-.229-.714,1.156,1.156,0,0,0-.809-.209h-.775a1.018,1.018,0,0,0-.71.219.888.888,0,0,0-.2.7l0,4.007L24.136.6A2.991,2.991,0,0,0,23.852.29,1.109,1.109,0,0,0,23.077.1H22.3a1,1,0,0,0-.71.219.888.888,0,0,0-.2.7l-.008,8.014a.834.834,0,0,0,.229.648.936.936,0,0,0,.71.2H23.2a1.041,1.041,0,0,0,.7-.208.827.827,0,0,0,.208-.637l0-4.018L27.485,9.4a3.665,3.665,0,0,0,.3.319.983.983,0,0,0,.7.165h.863a1.075,1.075,0,0,0,.711-.208.785.785,0,0,0,.2-.637ZM33.8,6.137V5.994a1.417,1.417,0,0,1,.208-.878.768.768,0,0,1,.656-.274h.109a.768.768,0,0,1,.656.275A1.422,1.422,0,0,1,35.64,6v.143a1.419,1.419,0,0,1-.208.878.769.769,0,0,1-.656.274h-.109a.768.768,0,0,1-.655-.275,1.423,1.423,0,0,1-.207-.879Zm4.743.19V5.811a3.445,3.445,0,0,0-.938-2.756,4.222,4.222,0,0,0-2.688-.8h-.382a4.233,4.233,0,0,0-2.7.8,3.438,3.438,0,0,0-.93,2.755v.516a3.444,3.444,0,0,0,.927,2.756,4.234,4.234,0,0,0,2.7.8h.382a4.21,4.21,0,0,0,2.678-.8,3.412,3.412,0,0,0,.952-2.755Zm2.5,2.306A1.029,1.029,0,0,0,40.02,7.6a1.047,1.047,0,0,0-.743.3,1.03,1.03,0,0,0-.3.735.989.989,0,0,0,.294.725,1.023,1.023,0,0,0,.744.319.975.975,0,0,0,.721-.318.957.957,0,0,0,.306-.723Zm4.1.683,0-8.4c0-.549-.283-.824-.851-.824l-2.384,0c-.283,0-.426.132-.426.395V1.695c0,.264.141.4.426.4h.5a.2.2,0,0,1,.219.22l0,7.005a.37.37,0,0,0,.424.407h1.663a.371.371,0,0,0,.426-.405Z" transform="translate(15.425 10.038) rotate(8)" fill="#fffdf2" fill-rule="evenodd"/>
  </g>
</svg>
